HIERARCHY
ROOT Hips
{
    OFFSET 0.0 0.0 0.0
    CHANNELS 6 Xposition Yposition Zposition Zrotation Xrotation Yrotation
    JOINT LeftHipJoint
    {
        OFFSET 0.1 0.0 0.0
        CHANNELS 3 Zrotation Xrotation Yrotation
        JOINT LeftUpLeg
        {
            OFFSET 126.79948275513753 0.0 0.0
            CHANNELS 3 Zrotation Xrotation Yrotation
            JOINT LeftLeg
            {
                OFFSET 0.0 0.0 -437.186279481174
                CHANNELS 3 Zrotation Xrotation Yrotation
                JOINT LeftFoot
                {
                    OFFSET 0.0 0.0 -392.1883233961987
                    CHANNELS 3 Zrotation Xrotation Yrotation
                    End Site
                    {
                        OFFSET 0.0 -0.1 0.0
                    }
                }
            }
        }
    }
    JOINT LowerBack
    {
        OFFSET 0.0 0.0 0.1
        CHANNELS 3 Zrotation Xrotation Yrotation
        JOINT Spine
        {
            OFFSET 0.0 0.0 220.59739444828023
            CHANNELS 3 Zrotation Xrotation Yrotation
            JOINT Spine1
            {
                OFFSET 0.0 0.0 250.01874920856667
                CHANNELS 3 Zrotation Xrotation Yrotation
                JOINT LeftShoulder
                {
                    OFFSET 0.1 0.0 0.0
                    CHANNELS 3 Zrotation Xrotation Yrotation
                    JOINT LeftArm
                    {
                        OFFSET 137.6962004174295 0.0 0.0
                        CHANNELS 3 Zrotation Xrotation Yrotation
                        JOINT LeftForeArm
                        {
                            OFFSET 267.3885385859164 0.0 0.0
                            CHANNELS 3 Zrotation Xrotation Yrotation
                            JOINT LeftHand
                            {
                                OFFSET 248.85039161839282 0.0 0.0
                                CHANNELS 3 Zrotation Xrotation Yrotation
                                End Site
                                {
                                    OFFSET 0.1 0.0 0.0
                                }
                            }
                        }
                    }
                }
                JOINT Neck
                {
                    OFFSET 0.0 0.0 0.1
                    CHANNELS 3 Zrotation Xrotation Yrotation
                    JOINT Neck1
                    {
                        OFFSET 0.0 0.0 101.1417446950326
                        CHANNELS 3 Zrotation Xrotation Yrotation
                        End Site
                        {
                            OFFSET 0.0 0.0 112.67501312846444
                        }
                    }
                }
                JOINT RightShoulder
                {
                    OFFSET -0.1 0.0 0.0
                    CHANNELS 3 Zrotation Xrotation Yrotation
                    JOINT RightArm
                    {
                        OFFSET -137.6962004174295 0.0 0.0
                        CHANNELS 3 Zrotation Xrotation Yrotation
                        JOINT RightForeArm
                        {
                            OFFSET -267.3885385859164 0.0 0.0
                            CHANNELS 3 Zrotation Xrotation Yrotation
                            JOINT RightHand
                            {
                                OFFSET -248.85039161839282 0.0 0.0
                                CHANNELS 3 Zrotation Xrotation Yrotation
                                End Site
                                {
                                    OFFSET -0.1 0.0 0.0
                                }
                            }
                        }
                    }
                }
            }
        }
    }
    JOINT RightHipJoint
    {
        OFFSET -0.1 0.0 0.0
        CHANNELS 3 Zrotation Xrotation Yrotation
        JOINT RightUpLeg
        {
            OFFSET -126.79948275513753 0.0 0.0
            CHANNELS 3 Zrotation Xrotation Yrotation
            JOINT RightLeg
            {
                OFFSET 0.0 0.0 -437.186279481174
                CHANNELS 3 Zrotation Xrotation Yrotation
                JOINT RightFoot
                {
                    OFFSET 0.0 0.0 -392.1883233961987
                    CHANNELS 3 Zrotation Xrotation Yrotation
                    End Site
                    {
                        OFFSET 0.0 -0.1 0.0
                    }
                }
            }
        }
    }
}
MOTION
Frames: 8
Frame Time: 0.03333333333333333
0.0 0.0 833.3158650864071 24.973715877480984 2.965953546616805 1.8853994637079914 0.0 0.0 -9.93923337957349e-17 -0.1700288586491005 -15.107487498235022 -1.0210689085358713 -0.15732033722391725 23.58151362586626 0.5625041631644712 0.0 0.0 0.0 0.0 0.0 -9.93923337957349e-17 0.11964528066229778 10.610125762578152 -0.17512369281264048 -1.7900277375430025 -2.422314909623942e-16 2.7795407330111228e-15 0.0 0.0 -3.975693351829396e-16 -39.56663462926773 -0.9231296479489005 58.876718317349564 -115.4749543476082 -1.4859649795526363e-14 -5.664716232857623e-15 0.0 0.0 0.0 0.0 0.0 -3.975693351829396e-16 -0.16083029616972983 -9.22603237931925 -4.008632310039431 0.0 0.0 -3.975693351829396e-16 32.752401655832166 -3.097323129484904 -60.74861768605959 119.45538752111167 0.0 0.0 0.0 0.0 3.1805546814635168e-15 0.0 0.0 -9.93923337957349e-17 -0.12697989364151024 -11.0431305952611 -2.1041298036453893 -0.57204026572193 21.490771148949662 -0.3475231979952042 0.0 0.0 3.975693351829396e-16
0.0 0.0 833.3158650864071 24.884632431082945 3.027935267040601 1.9198175406654736 0.0 0.0 0.0 -0.19240620640044617 -15.08877461524038 -1.026076964512567 -0.12073132431342533 23.413710818667532 0.5198176520013575 0.0 0.0 0.0 0.0 0.0 0.0 0.13551021106798458 10.624568474629493 -0.12836149062232752 -1.799075089134224 1.2483078335316356e-17 -7.950406768628211e-16 0.0 0.0 -3.975693351829396e-16 -39.713714367753454 -0.968251341025819 58.639325740016574 -115.50731897956489 -1.4154004587387917e-14 1.4080894061783271e-15 0.0 0.0 0.0 0.0 0.0 -3.975693351829396e-16 -0.27111287363399816 -9.167589982114505 -4.0176045218233485 0.0 0.0 -3.975693351829396e-16 32.82624469684311 -3.321778641205325 -60.61515353853582 119.51285103919018 -1.739851313683331e-14 4.582732726701667e-15 0.0 0.0 0.0 0.0 0.0 0.0 -0.14338315889211875 -11.051503896566679 -2.0884820018919537 -0.5302958771893124 21.417919980640622 -0.340906625523887 0.0 0.0 3.975693351829396e-16
0.0 0.0 833.3158650864071 24.875907401420328 3.071558789917852 1.9686978430371933 0.0 0.0 0.0 -0.2170624084950653 -15.093350246057833 -1.0589292216057662 -0.09384684985831404 23.357306600560886 0.5247722039767945 0.0 0.0 0.0 0.0 0.0 0.0 0.15219439424750691 10.597009542902043 -0.09008259226626707 -1.8337256721480826 2.7826290304396387e-15 4.453219697005846e-17 0.0 0.0 -3.975693351829396e-16 -39.763874736935705 -1.0013524521923338 58.509973630952736 -115.62706249841395 -7.426058698044353e-15 -2.842217923439651e-15 6.3611093629270335e-15 6.3611093629270335e-15 6.3611093629270335e-15 0.0 0.0 -3.975693351829396e-16 -0.3106130969254642 -9.226511737368899 -4.078022900555348 0.0 0.0 -3.975693351829396e-16 32.84661360302262 -3.425295912809164 -60.57657633556754 119.75172701649646 -5.5019784207132255e-15 -3.1924826992677624e-15 0.0 0.0 0.0 0.0 0.0 0.0 -0.16074275979597294 -11.023858577553622 -2.091736936808126 -0.496353806272058 21.464102630899642 -0.3000287579019337 0.0 0.0 -3.975693351829396e-16
0.0 0.0 833.3158650864071 24.918875825410588 3.3621437783595054 2.0272413988761846 0.0 0.0 9.93923337957349e-17 -0.2395230164665076 -15.445539045433321 -1.0362419854136848 -0.05551277199848658 23.239241706187258 0.4593656723307828 -1.1034765745125397e-32 -1.5902773407317584e-15 -7.951386703658792e-16 0.0 0.0 9.93923337957349e-17 0.16392574672810503 10.609702543783321 -0.05577094498931813 -1.815071731768945 1.7357160454928658e-16 1.5932263689157639e-15 0.0 1.987846675914698e-16 0.0 -39.955933690871575 -1.2308001077881932 58.222173011245125 -115.7707756046131 9.45720374357516e-15 9.08471654718843e-15 0.0 0.0 0.0 0.0 1.987846675914698e-16 0.0 -0.38750117614575835 -9.391327848810375 -4.136372938511634 0.0 1.987846675914698e-16 0.0 32.95552121139343 -3.663960403931742 -60.306218148440074 119.9372218354892 -6.367144411433312e-15 1.1014278067691293e-14 0.0 0.0 0.0 0.0 0.0 9.93923337957349e-17 -0.17640901367406667 -11.258311022779827 -2.095235207186118 -0.4745958465831068 21.54007382688055 -0.30890988843659445 0.0 0.0 -3.9756933518293955e-16
0.0 0.0 833.3158650864071 24.953974646039313 3.5851714578891376 2.014733268442809 0.0 0.0 -1.987846675914698e-16 -0.25494491974458255 -15.636636767246145 -0.9212973184434597 0.013615822401641678 23.03851920706113 0.4210870120191088 0.0 0.0 3.975693351829396e-16 0.0 0.0 -1.987846675914698e-16 0.17295543632634497 10.658976954680401 -0.007076718805038588 -1.8228557547856117 7.634178960736148e-16 2.0002432422110242e-15 0.0 0.0 0.0 -40.227523150422975 -1.4238732895783333 57.93576001815182 -115.66280670627074 6.773467061483174e-15 1.0769168643654644e-14 0.0 0.0 0.0 0.0 0.0 0.0 -0.495353379563033 -9.470742387953361 -4.159847412679996 0.0 0.0 0.0 33.05991299178404 -3.9651823808803015 -60.03127349262062 120.12854014102665 -5.512446543583677e-15 -3.174373234396099e-15 0.0 0.0 0.0 0.0 0.0 -1.987846675914698e-16 -0.18844127334319358 -11.456915255918103 -2.0565033439525915 -0.44322361811670696 21.621079649346957 -0.24264343602755817 0.0 0.0 3.975693351829396e-16
0.0 0.0 833.3158650864071 24.979260556880256 3.98330587107465 2.0292810142695683 0.0 0.0 1.987846675914698e-16 -0.26907523974883096 -16.072987621670915 -0.8578400975621358 0.05138530922710846 22.989451357296858 0.49897606082166174 0.0 0.0 0.0 0.0 0.0 1.987846675914698e-16 0.17747099822312412 10.67396973214727 0.027196090327412298 -1.8135218372561988 -1.3661517987006098e-15 -1.6120989866491041e-15 0.0 0.0 -3.975693351829396e-16 -40.45235065973733 -1.5893702582065607 57.59137821129791 -115.68395845809016 -1.2156688497859412e-14 -7.384679167140745e-15 6.3611093629270335e-15 3.531125038440127e-31 6.3611093629270335e-15 0.0 0.0 -3.975693351829396e-16 -0.629667719388859 -9.683982654828014 -4.216675871431038 0.0 0.0 -3.975693351829396e-16 33.11123041317717 -4.216188011418752 -59.72791162336607 120.11879102893619 1.102435291463131e-14 6.3496844112232884e-15 0.0 0.0 0.0 0.0 0.0 1.987846675914698e-16 -0.20113813887514156 -11.93256807164807 -2.033816938641904 -0.42720213103409654 21.74925571288116 -0.1890076604341889 0.0 0.0 7.951386703658791e-16
0.0 0.0 833.3158650864071 25.038476475910027 4.284824957366166 2.0161668855455703 0.0 0.0 1.987846675914698e-16 -0.27422861845489477 -16.423500178165213 -0.7931204514225952 0.07729817669714688 22.858730747062978 0.6201663262691789 0.0 0.0 0.0 0.0 0.0 1.987846675914698e-16 0.1769940512357066 10.690908787548222 0.09622776553562415 -1.7659816277134919 1.2048198472377536e-15 -7.766640376079318e-16 0.0 0.0 7.951386703658792e-16 -40.73710293963086 -1.5954064178932836 57.10472269118126 -115.72752261516584 -2.1580248421668167e-14 -1.467839174225235e-15 0.0 0.0 0.0 0.0 0.0 7.951386703658792e-16 -0.7824722696237877 -9.908585890031123 -4.171759916221431 0.0 0.0 7.951386703658792e-16 33.39562355781942 -4.327681808826236 -59.34932014944067 120.15738629871393 6.345970968970285e-15 -1.1026490909145041e-14 0.0 0.0 0.0 0.0 0.0 1.987846675914698e-16 -0.20625719642895038 -12.287461379432555 -1.9635600865642913 -0.40101010327986525 21.783895370259156 -0.1899188287176029 0.0 -9.93923337957349e-17 0.0
0.0 0.0 833.3158650864071 25.04246341653082 4.58791479419013 2.012502308768711 0.0 0.0 3.975693351829396e-16 -0.2786115775132906 -16.707334623264643 -0.745040061178235 0.09663544070202536 22.767083376960535 0.7478053514466961 0.0 0.0 3.975693351829396e-16 0.0 0.0 3.975693351829396e-16 0.1763422659770182 10.680444355801946 0.1800971058020655 -1.734248181284828 1.993635681345127e-15 -3.67440543884951e-16 0.0 0.0 0.0 -41.17876419981968 -1.6157852965018256 56.60080914622215 -115.79302044335785 6.074827329432084e-15 3.6981229463719195e-15 0.0 0.0 0.0 0.0 0.0 0.0 -0.9603715244872351 -10.088993510821396 -4.101370200162095 0.0 0.0 0.0 33.695904903126134 -4.543020951165707 -59.013461773659955 120.13573162038564 -1.1860700310046719e-14 7.851264216089507e-15 0.0 0.0 0.0 0.0 0.0 3.975693351829396e-16 -0.2115851314674152 -12.635526906636237 -1.9368445444295157 -0.3930005199145865 21.89266800287915 -0.06506285694798346 0.0 0.0 -3.975693351829396e-16
